<svg xmlns="http://www.w3.org/2000/svg" viewBox="0 0 251 67.38"><defs><style>.cls-1{fill:#fff;stroke:#c7522f;stroke-width:0.95px;}.cls-2{fill:#231f20;}</style></defs><g id="Layer_2" data-name="Layer 2"><g id="Layer_1-2" data-name="Layer 1"><path class="cls-1" d="M11,7.37H24.71q5.57,0,10.13.29A43.53,43.53,0,0,1,41,8.45a22.28,22.28,0,0,1,5.5,1.88,22.32,22.32,0,0,1,9.27,7.79,29.66,29.66,0,0,1,4.63,11.25A38,38,0,0,1,61,36.46q0,1.66-.15,3.48a32.32,32.32,0,0,1-2.46,10.35,28.27,28.27,0,0,1-3.25,5.43,24.66,24.66,0,0,1-8.69,7.09,24.24,24.24,0,0,1-4.63,1.66,10.53,10.53,0,0,1-2.72.58,26.87,26.87,0,0,1-3.51.36c-2.6.2-5.47.29-8.61.29H11Z"/><path class="cls-1" d="M63.93,65.41,91.66,8l27.79,57.46Z"/><path class="cls-1" d="M194,8.26,166.32,65.44l-11-22.8-11,22.8L116.67,8.26H194Z"/><path class="cls-1" d="M240.14,7.3V32.41h7.23V65.63H233.7q-5.65,0-10.14-.29a43.53,43.53,0,0,1-6.15-.79,21.78,21.78,0,0,1-5.5-1.89,22.14,22.14,0,0,1-9.26-7.78A29.36,29.36,0,0,1,198,43.63a37.64,37.64,0,0,1-.65-7c0-1.16,0-2.34.15-3.55A32.32,32.32,0,0,1,200,22.71a28.27,28.27,0,0,1,3.25-5.43,24.66,24.66,0,0,1,8.69-7.09,24.24,24.24,0,0,1,4.63-1.66A10.53,10.53,0,0,1,219.26,8a27.35,27.35,0,0,1,3.51-.37q3.9-.29,8.54-.29Z"/><circle class="cls-2" cx="23.97" cy="33.92" r="2.94"/><circle class="cls-2" cx="9.91" cy="65.57" r="1.81"/><circle class="cls-2" cx="119.34" cy="65.43" r="1.81"/><circle class="cls-2" cx="248.42" cy="30.5" r="1.81"/><circle class="cls-2" cx="99.73" cy="42.87" r="2.94"/><circle class="cls-2" cx="144.65" cy="33.61" r="2.94"/><circle class="cls-2" cx="164.72" cy="33.61" r="2.94"/><circle class="cls-2" cx="232.26" cy="32.36" r="2.94"/><path class="cls-2" d="M11,7.13,5.93,14.48a2.69,2.69,0,0,1-4.46,0l-1-1.59A2.55,2.55,0,0,1,2,9Z"/><path class="cls-2" d="M117.17,8.82l-8.68-2a2.69,2.69,0,0,1-1.59-4.16L108,1.1a2.54,2.54,0,0,1,4.22.08Z"/><path class="cls-2" d="M240.07,7.45l8.75,1.68a2.69,2.69,0,0,1,1.75,4.1l-1,1.6a2.55,2.55,0,0,1-4.22.08Z"/><path class="cls-2" d="M193.53,8.81l8.68-2a2.69,2.69,0,0,0,1.59-4.16l-1.09-1.56a2.55,2.55,0,0,0-4.22.07Z"/><path class="cls-2" d="M91.79,7.8,83,9.29a2.69,2.69,0,0,1-3.08-3.22l.41-1.86a2.55,2.55,0,0,1,3.93-1.56Z"/><circle class="cls-2" cx="155.2" cy="42.94" r="1.81"/></g></g></svg>