<svg xmlns="http://www.w3.org/2000/svg" viewBox="0 0 59.28 59.28"><defs><style>.cls-1{fill:#fff;}</style></defs><g id="Layer_2" data-name="Layer 2"><g id="Layer_1-2" data-name="Layer 1"><rect class="cls-1" x="35.6" y="18.86" width="5.56" height="5.56" rx="0.94"/><path class="cls-1" d="M29.66,35.42a5.83,5.83,0,1,0-6-5.82A5.92,5.92,0,0,0,29.66,35.42Z"/><path class="cls-1" d="M39,29.92a9.3,9.3,0,0,1-18.59,0,8.78,8.78,0,0,1,.38-2.57l-1.83-.5V39.94c-.5.65-.22.93.44,1.16H39.93c.65-.23.93-.51.93-1.86h.3V26.85l-2.58.5A8.78,8.78,0,0,1,39,29.92Z"/><path class="cls-1" d="M29.64,0A29.64,29.64,0,1,0,59.28,29.64,29.64,29.64,0,0,0,29.64,0ZM44.86,41.06a3.73,3.73,0,0,1-3.74,3.74H19a3.73,3.73,0,0,1-3.74-3.74V18.9A3.73,3.73,0,0,1,19,15.16h22.2a3.64,3.64,0,0,1,3.7,3.7Z"/></g></g></svg>