<svg xmlns="http://www.w3.org/2000/svg" viewBox="0 0 59.28 59.28"><defs><style>.cls-1{fill:#fff;}</style></defs><g id="Layer_2" data-name="Layer 2"><g id="Layer_1-2" data-name="Layer 1"><path class="cls-1" d="M29.64,0A29.64,29.64,0,1,0,59.28,29.64,29.64,29.64,0,0,0,29.64,0ZM45.83,20.46a14.81,14.81,0,0,1-1.65,1.84c-1.32,1.31-1.39,1.45-1.39,2.55A24.66,24.66,0,0,1,41.19,32a20.68,20.68,0,0,1-7.85,9.24A19.86,19.86,0,0,1,17.88,43c-1.67-.53-4.55-1.86-4.55-2.1a6.89,6.89,0,0,1,1.94-.19A13.1,13.1,0,0,0,21.58,39l1.28-.77-1.47-.5c-2.07-.71-3.93-2.36-4.4-3.9-.15-.51-.1-.53,1.22-.53l1.37,0-1.16-.55a7.62,7.62,0,0,1-3.22-3,8.44,8.44,0,0,1-.85-3.19c0-.08.54.07,1.1.26,1.63.59,1.84.45.9-.55a6.89,6.89,0,0,1-1.46-7.06l.4-1.14,1.55,1.55A19.18,19.18,0,0,0,28.06,25l1.18.14L29.17,24a6.82,6.82,0,0,1,4.6-6.86,8.07,8.07,0,0,1,4.12-.1,9.8,9.8,0,0,1,2,1.05l1.15.79,1.27-.4a13.73,13.73,0,0,0,2.08-.81c.4-.22.75-.33.75-.26A6.93,6.93,0,0,1,43.55,20c-1,1.08-.71,1.17,1.29.46C46.05,20,46.07,20,45.83,20.46Z"/></g></g></svg>