<svg xmlns="http://www.w3.org/2000/svg" viewBox="0 0 114.44 88.97"><defs><style>.cls-1{fill:#d9e021;}</style></defs><g id="Layer_2" data-name="Layer 2"><g id="Layer_1-2" data-name="Layer 1"><path class="cls-1" d="M8.76,80.16a18.14,18.14,0,0,0,14.17,2.07A18.27,18.27,0,0,0,35.79,59.17a18.57,18.57,0,0,0-7.28-9.82l3.72-13a18.44,18.44,0,0,0,11.51-1.74l2.4,4.14c5,8.57,10.1,17.44,15.06,26.2a4,4,0,0,1,0,2,18.32,18.32,0,0,0,18,22,18.1,18.1,0,0,0,11.2-3.85c6.65-5.22,9.11-14,5.74-20.44-2-3.76-1.15-6.69,0-10.75l.11-.4c.18-.64.38-1.27.59-1.91A27.82,27.82,0,0,0,98,47.09c.23-1.6.63-2.14,2.85-2.66a17.35,17.35,0,0,0,11-8.1A18.52,18.52,0,0,0,113.79,22a18.27,18.27,0,0,0-35.28,9.51,18.75,18.75,0,0,0,8,10.93L83.64,53a18.41,18.41,0,0,0-13.91,2l-2.48-4.27C62.49,42.47,57.57,34,52.82,25.58a3.29,3.29,0,0,1,0-1.76c2.34-8.59-1.06-17.19-8.47-21.41A18.17,18.17,0,0,0,21.63,6.22c-5.72,6.45-6.15,15.47-1.08,23a2.49,2.49,0,0,1,.29,1.5c-.64,2.64-1.4,5.32-2.13,7.91-.63,2.24-1.26,4.47-1.83,6.71-.27,1.07-.27,1.07-1.27,1.21A18.46,18.46,0,0,0,3.2,54.24,17.86,17.86,0,0,0,.39,68.1,18.57,18.57,0,0,0,8.76,80.16ZM92,22.55a6,6,0,0,1,4.18-1.71h.1a6,6,0,0,1,4.06,10.35,5.88,5.88,0,0,1-4.27,1.71,6.11,6.11,0,0,1-5.92-6.14A6,6,0,0,1,92,22.55ZM74.91,66.4a6,6,0,0,1,4.23-1.75h0a6,6,0,0,1,0,12h0a6,6,0,0,1-4.2-10.3ZM31.06,14.13a6,6,0,0,1,4.23-1.81h0a6.12,6.12,0,0,1,6,6,6,6,0,1,1-10.31-4.18ZM14,60.35a6,6,0,0,1,4.25-1.79h0a6,6,0,0,1,6,6,6.08,6.08,0,0,1-6,6h0A6,6,0,0,1,14,60.35Z"/></g></g></svg>