<svg xmlns="http://www.w3.org/2000/svg" viewBox="0 0 168.05 105.65"><g id="Layer_2" data-name="Layer 2"><g id="Layer_1-2" data-name="Layer 1"><path d="M29,93.53a58.58,58.58,0,0,0,13.12,6.13c13.52,4.6,27.62,5.63,46.46,6,5-.53,14.79-1,24.3-2.73A119.85,119.85,0,0,0,135.11,96c5.2-2.06,10.6-5.32,10.66-11.77,0-6.67-5.62-9.57-10.77-12.22a50.11,50.11,0,0,0-8.58-3.45c-24.34-7.3-49.06-7.86-73.77-2.69a85.66,85.66,0,0,0-23.38,8.68C19.91,79.73,20.06,87.71,29,93.53Z"/><path d="M101,34.71c-2.06-2.1-3.88-2.81-6.89-1.1a19.27,19.27,0,0,1-20.18-.13c-2.39-1.4-4-1.14-5.81.56-7.22,6.65-9.64,15.07-9.58,24h51.37C109.69,49.43,107.44,41.31,101,34.71Z"/><path d="M84,30.73A15.1,15.1,0,0,0,99.45,15.46a15.29,15.29,0,1,0-30.58-.31A15.11,15.11,0,0,0,84,30.73Z"/><path d="M142.53,49.11A15.42,15.42,0,1,0,127,33.7,15.63,15.63,0,0,0,142.53,49.11Z"/><path d="M152.05,84.15c4.4-1,8.62-1.72,12.62-3.07,1.45-.49,3.37-2.52,3.38-3.86.07-9.08-2.18-17.45-8.8-24.2C157,50.75,155.12,50.14,152,52c-5.95,3.52-12.68,4-18.51.4-4.64-2.89-6.94-.87-9.49,2.17-1.47,1.75-2.65,3.75-4.16,5.94C133,65.37,147.43,67.53,152.05,84.15Z"/><path d="M12.19,83.21c1.42.23,2.85.34,4.19.5,4.33-16.37,18.93-18.29,32.17-23.35-2.48-3-4.46-5.9-7-8.2a5.28,5.28,0,0,0-4.81-.54C28.67,55.88,21,55.51,13,50.16A24.44,24.44,0,0,0,1.67,66.37C-1.42,80.17-1.4,80.93,12.19,83.21Z"/><path d="M25.92,49.1a15.42,15.42,0,1,0-.16-30.83,15.42,15.42,0,0,0,.16,30.83Z"/></g></g></svg>