<svg xmlns="http://www.w3.org/2000/svg" viewBox="0 0 99.8 131.8"><defs><style>.cls-1{fill:#c7522f;}</style></defs><g id="Layer_2" data-name="Layer 2"><g id="Layer_1-2" data-name="Layer 1"><path class="cls-1" d="M3.85,105c2.1,5.33,6.61,8.07,11.54,7.46,2.66-.33,3.85-1.47,3.53-4.44-.73-6.77-1.11-13.57-1.85-23.34.66-4.2,1.63-11.27,3-18.26a5.22,5.22,0,0,1,3.38-3.33c1.06-.22,2.9,1.25,3.71,2.44,1.66,2.44,2.71,5.27,4.29,7.76.76,1.19,2.16,2,3.26,2.94.66-1.28,1.67-2.5,1.89-3.86.5-2.91.28-6,.92-8.82.81-3.66,3.56-4.31,5.78-1.28a49,49,0,0,1,5.1,9.39c1.1,2.53,2.29,3.72,5.28,3.16,5.1-1,10.28-1.44,15.42-2.2,2.8-.42,5,.48,5.08,3.39.59,17.87-1.86,30.72-19.45,35.27a5.09,5.09,0,0,0-1,.48A10.65,10.65,0,0,0,49,125.49a10.48,10.48,0,0,0,12.94,5.77c24.8-8.09,38.46-35.51,29.76-60.08C87.05,58,78.08,48.66,65.41,42.93c-3.35-1.52-5-3.31-3.79-7.13a21.7,21.7,0,0,0,.76-6.24A29.65,29.65,0,0,0,8,13.3,29.53,29.53,0,0,0,9.86,48.56c3.61,4.36,3.53,4.66.17,9.15C-.89,72.3-2.8,88.14,3.85,105ZM37.77,31.84a3.44,3.44,0,0,1,3.19.32c4.31,3.38,4.75,3.28,7.19-1.63.44-.88,2-1.93,2.69-1.75,1,.25,1.69,1.62,2,2a8.36,8.36,0,0,1-6.66,8.3c-3.71.76-7.78-1-9-4.08C36.91,34.09,37.13,32.33,37.77,31.84ZM15.4,36.68c1.09.2,2.48,0,3.21.65,3.94,3.29,4.84,3.07,7-1.54.43-.94,2-1.36,3-2,.62,1.06,1.78,2.12,1.79,3.19,0,3.89-4,7.35-8.25,7.39-3.21,0-5.84-1.26-7.24-4.16C14.48,39.3,15.2,37.87,15.4,36.68Z"/><path class="cls-1" d="M79.67,27c.41.73,2.11,1.5,2.74,1.22,6.32-2.84,12.69-5.75,16.39-12.1A7.92,7.92,0,0,0,97.65,6.8c-2.74-2.71-5.72-2.43-8.81-.64L86.6,7.43a7.85,7.85,0,0,1-.7-.9c-2.7-4.92-5.52-6.46-9.29-5A8,8,0,0,0,72,11.9C74,17.14,77,22,79.67,27Z"/><path class="cls-1" d="M54.36,80.57c-.56-.54-1.41-2-2.32-2a3.58,3.58,0,0,0-2.71,2.14c-.83,3.61-2.2,3.61-4.79,1.46-.72-.6-2.54-.47-3.45,0-.48.28-.49,2.31,0,3.17,1.38,2.58,5.23,3.75,8.16,2.72C52.39,87,53.87,84.55,54.36,80.57Z"/><path class="cls-1" d="M71.43,79.65c.07-2.87-1.89-3.72-4.4-3.73-2.71,0-5.5.26-5.61,3.76-.1,2.84,1.8,4.1,4.6,3.92C68.83,83.65,71.35,83.16,71.43,79.65Z"/><path class="cls-1" d="M34.85,83.75c-.7-.25-2.65.9-2.88,1.74-.94,3.46-2.21,4.22-5,1.6-.62-.57-2.17-.15-3.28-.18,0,1.23-.54,3,.06,3.57,1.49,1.46,3.5,2.38,5.3,3.51,4.28-.49,7.87-3.56,7.8-7.27A3.88,3.88,0,0,0,34.85,83.75Z"/></g></g></svg>